STARTFONT 2.1
FONT -Adobe-Symbol-Medium-R-Normal--12-120-75-75-P-74-Adobe-FontSpecific
SIZE 12 75 75
FONTBOUNDINGBOX 14 16 -1 -4
COMMENT $Xorg: symb12.bdf,v 1.3 2000/08/18 15:17:37 xorgcvs Exp $
COMMENT 
COMMENT +
COMMENT  Copyright 1984-1989, 1994 Adobe Systems Incorporated.
COMMENT  Copyright 1988, 1994 Digital Equipment Corporation.
COMMENT
COMMENT  Adobe is a trademark of Adobe Systems Incorporated which may be
COMMENT  registered in certain jurisdictions.
COMMENT  Permission to use these trademarks is hereby granted only in
COMMENT  association with the images described in this file.
COMMENT
COMMENT  Permission to use, copy, modify, distribute and sell this software
COMMENT  and its documentation for any purpose and without fee is hereby
COMMENT  granted, provided that the above copyright notices appear in all
COMMENT  copies and that both those copyright notices and this permission
COMMENT  notice appear in supporting documentation, and that the names of
COMMENT  Adobe Systems and Digital Equipment Corporation not be used in
COMMENT  advertising or publicity pertaining to distribution of the software
COMMENT  without specific, written prior permission.  Adobe Systems and
COMMENT  Digital Equipment Corporation make no representations about the
COMMENT  suitability of this software for any purpose.  It is provided "as
COMMENT  is" without express or implied warranty.
COMMENT -
STARTPROPERTIES 27
FOUNDRY "Adobe"
FAMILY_NAME "Symbol"
WEIGHT_NAME "Medium"
SLANT "R"
SETWIDTH_NAME "Normal"
ADD_STYLE_NAME ""
PIXEL_SIZE 12
POINT_SIZE 120
RESOLUTION_X 75
RESOLUTION_Y 75
SPACING "P"
AVERAGE_WIDTH 74
CHARSET_REGISTRY "Adobe"
CHARSET_ENCODING "FontSpecific"
CAP_HEIGHT 9
X_HEIGHT 6
FONT_ASCENT 11
FONT_DESCENT 3
FACE_NAME "Symbol"
COPYRIGHT "Copyright (c) 1984, 1987 Adobe Systems Incorporated. All Rights Reserved. Copyright (c) 1988, 1991 Digital Equipment Corporation. All Rights Reserved."
NOTICE "No mark"
_DEC_DEVICE_FONTNAMES "PS=Symbol"

STARTCHAR space
ENCODING 32
SWIDTH 250 0
DWIDTH 3 0
BBX 1 1 0 0
BITMAP
00
ENDCHAR
STARTCHAR exclam
ENCODING 33
SWIDTH 333 0
DWIDTH 4 0
BBX 1 9 1 0
BITMAP
80
80
80
80
80
80
80
00
80
ENDCHAR
STARTCHAR universal
ENCODING 34
SWIDTH 713 0
DWIDTH 9 0
BBX 9 9 0 0
BITMAP
8080
4100
4100
3E00
2200
1400
1400
0800
0800
ENDCHAR
STARTCHAR numbersign
ENCODING 35
SWIDTH 500 0
DWIDTH 7 0
BBX 6 9 0 0
BITMAP
28
28
28
FC
50
F8
50
50
50
ENDCHAR
STARTCHAR existential
ENCODING 36
SWIDTH 549 0
DWIDTH 7 0
BBX 5 9 1 0
BITMAP
F8
08
08
08
F8
08
08
08
F8
ENDCHAR
STARTCHAR percent
ENCODING 37
SWIDTH 833 0
DWIDTH 10 0
BBX 9 9 0 0
BITMAP
7900
9700
9200
6400
0800
1300
1480
2480
6300
ENDCHAR
STARTCHAR ampersand
ENCODING 38
SWIDTH 778 0
DWIDTH 10 0
BBX 9 9 1 0
BITMAP
3000
4800
4800
3700
7200
9A00
8C00
8C80
7300
ENDCHAR
STARTCHAR suchthat
ENCODING 39
SWIDTH 439 0
DWIDTH 6 0
BBX 4 6 1 0
BITMAP
E0
10
F0
10
10
E0
ENDCHAR
STARTCHAR parenleft
ENCODING 40
SWIDTH 333 0
DWIDTH 5 0
BBX 3 12 1 -3
BITMAP
20
40
40
80
80
80
80
80
80
40
40
20
ENDCHAR
STARTCHAR parenright
ENCODING 41
SWIDTH 333 0
DWIDTH 5 0
BBX 3 12 0 -3
BITMAP
80
40
40
20
20
20
20
20
20
40
40
80
ENDCHAR
STARTCHAR asteriskmath
ENCODING 42
SWIDTH 500 0
DWIDTH 6 0
BBX 5 5 0 2
BITMAP
20
A8
70
A8
20
ENDCHAR
STARTCHAR plus
ENCODING 43
SWIDTH 549 0
DWIDTH 7 0
BBX 5 5 1 1
BITMAP
20
20
F8
20
20
ENDCHAR
STARTCHAR comma
ENCODING 44
SWIDTH 250 0
DWIDTH 3 0
BBX 2 3 0 -2
BITMAP
40
40
80
ENDCHAR
STARTCHAR minus
ENCODING 45
SWIDTH 549 0
DWIDTH 7 0
BBX 5 1 1 3
BITMAP
F8
ENDCHAR
STARTCHAR period
ENCODING 46
SWIDTH 250 0
DWIDTH 3 0
BBX 1 1 1 0
BITMAP
80
ENDCHAR
STARTCHAR slash
ENCODING 47
SWIDTH 278 0
DWIDTH 3 0
BBX 3 9 0 0
BITMAP
20
20
20
40
40
40
80
80
80
ENDCHAR
STARTCHAR zero
ENCODING 48
SWIDTH 500 0
DWIDTH 6 0
BBX 5 9 0 0
BITMAP
70
88
88
88
88
88
88
88
70
ENDCHAR
STARTCHAR one
ENCODING 49
SWIDTH 500 0
DWIDTH 6 0
BBX 3 9 1 0
BITMAP
40
C0
40
40
40
40
40
40
E0
ENDCHAR
STARTCHAR two
ENCODING 50
SWIDTH 500 0
DWIDTH 6 0
BBX 5 9 0 0
BITMAP
70
88
88
08
10
20
40
88
F8
ENDCHAR
STARTCHAR three
ENCODING 51
SWIDTH 500 0
DWIDTH 6 0
BBX 5 9 0 0
BITMAP
70
88
88
08
30
08
08
88
70
ENDCHAR
STARTCHAR four
ENCODING 52
SWIDTH 500 0
DWIDTH 6 0
BBX 6 9 0 0
BITMAP
18
28
28
48
48
88
FC
08
08
ENDCHAR
STARTCHAR five
ENCODING 53
SWIDTH 500 0
DWIDTH 6 0
BBX 5 9 0 0
BITMAP
78
40
80
F0
18
08
08
88
F0
ENDCHAR
STARTCHAR six
ENCODING 54
SWIDTH 500 0
DWIDTH 6 0
BBX 5 9 0 0
BITMAP
38
40
80
B0
C8
88
88
88
70
ENDCHAR
STARTCHAR seven
ENCODING 55
SWIDTH 500 0
DWIDTH 6 0
BBX 5 9 0 0
BITMAP
F8
88
10
10
20
20
40
40
40
ENDCHAR
STARTCHAR eight
ENCODING 56
SWIDTH 500 0
DWIDTH 6 0
BBX 5 9 0 0
BITMAP
70
88
88
C8
70
98
88
88
70
ENDCHAR
STARTCHAR nine
ENCODING 57
SWIDTH 500 0
DWIDTH 6 0
BBX 5 9 0 0
BITMAP
70
88
88
88
78
10
10
20
40
ENDCHAR
STARTCHAR colon
ENCODING 58
SWIDTH 278 0
DWIDTH 3 0
BBX 1 6 2 0
BITMAP
80
00
00
00
00
80
ENDCHAR
STARTCHAR semicolon
ENCODING 59
SWIDTH 278 0
DWIDTH 3 0
BBX 2 8 0 -2
BITMAP
40
00
00
00
00
40
40
80
ENDCHAR
STARTCHAR less
ENCODING 60
SWIDTH 549 0
DWIDTH 7 0
BBX 6 5 0 1
BITMAP
0C
30
C0
30
0C
ENDCHAR
STARTCHAR equal
ENCODING 61
SWIDTH 549 0
DWIDTH 7 0
BBX 5 3 1 2
BITMAP
F8
00
F8
ENDCHAR
STARTCHAR greater
ENCODING 62
SWIDTH 549 0
DWIDTH 7 0
BBX 6 5 0 1
BITMAP
C0
30
0C
30
C0
ENDCHAR
STARTCHAR question
ENCODING 63
SWIDTH 444 0
DWIDTH 6 0
BBX 5 9 0 0
BITMAP
70
88
88
08
10
20
20
00
20
ENDCHAR
STARTCHAR congruent
ENCODING 64
SWIDTH 549 0
DWIDTH 7 0
BBX 5 6 1 0
BITMAP
68
B0
00
F8
00
F8
ENDCHAR
STARTCHAR Alpha
ENCODING 65
SWIDTH 722 0
DWIDTH 9 0
BBX 9 9 0 0
BITMAP
0800
1C00
1400
1400
2200
3E00
2200
4100
E380
ENDCHAR
STARTCHAR Beta
ENCODING 66
SWIDTH 667 0
DWIDTH 8 0
BBX 7 9 0 0
BITMAP
FC
46
42
46
7C
46
42
46
FC
ENDCHAR
STARTCHAR Chi
ENCODING 67
SWIDTH 722 0
DWIDTH 9 0
BBX 8 9 0 0
BITMAP
E7
42
24
18
18
24
24
42
E7
ENDCHAR
STARTCHAR Delta
ENCODING 68
SWIDTH 612 0
DWIDTH 8 0
BBX 7 9 0 0
BITMAP
10
10
28
28
44
44
44
82
FE
ENDCHAR
STARTCHAR Epsilon
ENCODING 69
SWIDTH 611 0
DWIDTH 8 0
BBX 7 9 0 0
BITMAP
FE
42
40
44
7C
44
40
42
FE
ENDCHAR
STARTCHAR Phi
ENCODING 70
SWIDTH 763 0
DWIDTH 10 0
BBX 9 9 0 0
BITMAP
1C00
0800
7F00
C980
8880
C980
7F00
0800
1C00
ENDCHAR
STARTCHAR Gamma
ENCODING 71
SWIDTH 603 0
DWIDTH 8 0
BBX 7 9 0 0
BITMAP
FE
42
40
40
40
40
40
40
E0
ENDCHAR
STARTCHAR Eta
ENCODING 72
SWIDTH 722 0
DWIDTH 9 0
BBX 8 9 0 0
BITMAP
E7
42
42
42
7E
42
42
42
E7
ENDCHAR
STARTCHAR Iota
ENCODING 73
SWIDTH 333 0
DWIDTH 4 0
BBX 3 9 0 0
BITMAP
E0
40
40
40
40
40
40
40
E0
ENDCHAR
STARTCHAR theta1
ENCODING 74
SWIDTH 631 0
DWIDTH 8 0
BBX 8 9 0 0
BITMAP
04
0A
0A
66
A3
22
22
26
1C
ENDCHAR
STARTCHAR Kappa
ENCODING 75
SWIDTH 722 0
DWIDTH 9 0
BBX 8 9 0 0
BITMAP
EE
44
48
50
70
48
44
42
E7
ENDCHAR
STARTCHAR Lambda
ENCODING 76
SWIDTH 686 0
DWIDTH 9 0
BBX 9 9 0 0
BITMAP
0800
0800
1400
1400
2200
2200
4100
4100
E380
ENDCHAR
STARTCHAR Mu
ENCODING 77
SWIDTH 889 0
DWIDTH 11 0
BBX 11 9 0 0
BITMAP
E0E0
60C0
5140
5140
5140
4A40
4A40
4440
E4E0
ENDCHAR
STARTCHAR Nu
ENCODING 78
SWIDTH 722 0
DWIDTH 9 0
BBX 8 9 0 0
BITMAP
E7
62
52
52
4A
4A
46
46
E2
ENDCHAR
STARTCHAR Omicron
ENCODING 79
SWIDTH 722 0
DWIDTH 9 0
BBX 8 9 0 0
BITMAP
3C
66
42
81
81
81
42
66
3C
ENDCHAR
STARTCHAR Pi
ENCODING 80
SWIDTH 768 0
DWIDTH 9 0
BBX 8 9 0 0
BITMAP
FF
42
42
42
42
42
42
42
E7
ENDCHAR
STARTCHAR Theta
ENCODING 81
SWIDTH 741 0
DWIDTH 9 0
BBX 8 9 0 0
BITMAP
3C
66
42
A5
BD
A5
42
66
3C
ENDCHAR
STARTCHAR Rho
ENCODING 82
SWIDTH 556 0
DWIDTH 7 0
BBX 6 9 0 0
BITMAP
F8
4C
44
4C
78
40
40
40
E0
ENDCHAR
STARTCHAR Sigma
ENCODING 83
SWIDTH 592 0
DWIDTH 7 0
BBX 7 9 0 0
BITMAP
FC
84
C0
60
30
20
40
82
FE
ENDCHAR
STARTCHAR Tau
ENCODING 84
SWIDTH 611 0
DWIDTH 8 0
BBX 7 9 0 0
BITMAP
FE
92
92
10
10
10
10
10
38
ENDCHAR
STARTCHAR Upsilon
ENCODING 85
SWIDTH 690 0
DWIDTH 9 0
BBX 9 9 0 0
BITMAP
E380
4100
2200
1400
0800
0800
0800
0800
1C00
ENDCHAR
STARTCHAR sigma1
ENCODING 86
SWIDTH 439 0
DWIDTH 7 0
BBX 5 9 1 -3
BITMAP
78
80
80
80
C0
70
08
48
70
ENDCHAR
STARTCHAR Omega
ENCODING 87
SWIDTH 768 0
DWIDTH 10 0
BBX 10 9 0 0
BITMAP
1E00
3300
2100
4080
4080
4080
2100
9240
F3C0
ENDCHAR
STARTCHAR Xi
ENCODING 88
SWIDTH 645 0
DWIDTH 8 0
BBX 8 9 0 0
BITMAP
7E
42
00
24
3C
24
00
81
FF
ENDCHAR
STARTCHAR Psi
ENCODING 89
SWIDTH 795 0
DWIDTH 10 0
BBX 9 9 0 0
BITMAP
DD80
4900
4900
6B00
3E00
0800
0800
0800
1C00
ENDCHAR
STARTCHAR Zeta
ENCODING 90
SWIDTH 611 0
DWIDTH 8 0
BBX 6 9 1 0
BITMAP
FC
84
08
10
20
20
40
84
FC
ENDCHAR
STARTCHAR bracketleft
ENCODING 91
SWIDTH 333 0
DWIDTH 5 0
BBX 3 12 1 -3
BITMAP
E0
80
80
80
80
80
80
80
80
80
80
E0
ENDCHAR
STARTCHAR therefore
ENCODING 92
SWIDTH 863 0
DWIDTH 9 0
BBX 7 6 1 0
BITMAP
10
10
00
00
82
82
ENDCHAR
STARTCHAR bracketright
ENCODING 93
SWIDTH 333 0
DWIDTH 5 0
BBX 3 12 0 -3
BITMAP
E0
20
20
20
20
20
20
20
20
20
20
E0
ENDCHAR
STARTCHAR perpendicular
ENCODING 94
SWIDTH 658 0
DWIDTH 8 0
BBX 7 9 0 0
BITMAP
10
10
10
10
10
10
10
10
FE
ENDCHAR
STARTCHAR underscore
ENCODING 95
SWIDTH 500 0
DWIDTH 6 0
BBX 6 1 0 -3
BITMAP
FC
ENDCHAR
STARTCHAR radicalex
ENCODING 96
SWIDTH 500 0
DWIDTH 6 0
BBX 7 1 0 11
BITMAP
FE
ENDCHAR
STARTCHAR alpha
ENCODING 97
SWIDTH 631 0
DWIDTH 8 0
BBX 7 6 1 0
BITMAP
74
D4
88
88
D4
66
ENDCHAR
STARTCHAR beta
ENCODING 98
SWIDTH 549 0
DWIDTH 7 0
BBX 5 13 1 -3
BITMAP
70
88
88
88
B0
88
88
88
C8
B0
80
80
80
ENDCHAR
STARTCHAR chi
ENCODING 99
SWIDTH 549 0
DWIDTH 7 0
BBX 7 9 0 -3
BITMAP
C6
AC
28
18
30
28
68
4A
C6
ENDCHAR
STARTCHAR delta
ENCODING 100
SWIDTH 494 0
DWIDTH 7 0
BBX 5 10 1 0
BITMAP
70
98
80
40
70
88
88
88
88
70
ENDCHAR
STARTCHAR epsilon
ENCODING 101
SWIDTH 439 0
DWIDTH 6 0
BBX 4 6 1 0
BITMAP
70
80
E0
80
90
70
ENDCHAR
STARTCHAR phi
ENCODING 102
SWIDTH 521 0
DWIDTH 8 0
BBX 7 11 0 -3
BITMAP
10
10
38
54
92
92
54
38
10
10
10
ENDCHAR
STARTCHAR gamma
ENCODING 103
SWIDTH 411 0
DWIDTH 7 0
BBX 6 9 0 -3
BITMAP
C4
A4
24
24
28
18
10
30
20
ENDCHAR
STARTCHAR eta
ENCODING 104
SWIDTH 603 0
DWIDTH 8 0
BBX 7 9 0 -3
BITMAP
6C
B2
22
22
22
22
02
02
02
ENDCHAR
STARTCHAR iota
ENCODING 105
SWIDTH 329 0
DWIDTH 3 0
BBX 3 6 0 0
BITMAP
C0
40
40
40
40
60
ENDCHAR
STARTCHAR phi1
ENCODING 106
SWIDTH 603 0
DWIDTH 8 0
BBX 7 9 0 -3
BITMAP
18
54
92
92
54
38
10
10
10
ENDCHAR
STARTCHAR kappa
ENCODING 107
SWIDTH 549 0
DWIDTH 7 0
BBX 6 6 0 0
BITMAP
4C
D4
60
70
58
4C
ENDCHAR
STARTCHAR lambda
ENCODING 108
SWIDTH 549 0
DWIDTH 7 0
BBX 7 9 0 0
BITMAP
60
50
10
30
28
48
48
8A
86
ENDCHAR
STARTCHAR mu
ENCODING 109
SWIDTH 576 0
DWIDTH 8 0
BBX 7 9 1 -3
BITMAP
88
88
88
88
9A
EC
80
80
C0
ENDCHAR
STARTCHAR nu
ENCODING 110
SWIDTH 521 0
DWIDTH 7 0
BBX 6 6 0 0
BITMAP
CC
44
44
28
28
30
ENDCHAR
STARTCHAR omicron
ENCODING 111
SWIDTH 549 0
DWIDTH 7 0
BBX 5 6 1 0
BITMAP
70
88
88
88
88
70
ENDCHAR
STARTCHAR pi
ENCODING 112
SWIDTH 549 0
DWIDTH 7 0
BBX 7 6 0 0
BITMAP
7E
A4
24
24
26
64
ENDCHAR
STARTCHAR theta
ENCODING 113
SWIDTH 521 0
DWIDTH 7 0
BBX 5 9 1 0
BITMAP
70
88
88
88
F8
88
88
88
70
ENDCHAR
STARTCHAR rho
ENCODING 114
SWIDTH 549 0
DWIDTH 7 0
BBX 5 9 1 -3
BITMAP
70
88
88
88
C8
B0
80
80
80
ENDCHAR
STARTCHAR sigma
ENCODING 115
SWIDTH 603 0
DWIDTH 8 0
BBX 6 6 1 0
BITMAP
7C
90
88
88
88
70
ENDCHAR
STARTCHAR tau
ENCODING 116
SWIDTH 439 0
DWIDTH 6 0
BBX 5 6 0 0
BITMAP
78
A0
20
20
28
30
ENDCHAR
STARTCHAR upsilon
ENCODING 117
SWIDTH 576 0
DWIDTH 8 0
BBX 7 6 0 0
BITMAP
64
A2
22
22
26
1C
ENDCHAR
STARTCHAR omega1
ENCODING 118
SWIDTH 713 0
DWIDTH 9 0
BBX 8 7 0 0
BITMAP
7F
A2
49
49
49
49
36
ENDCHAR
STARTCHAR omega
ENCODING 119
SWIDTH 686 0
DWIDTH 9 0
BBX 7 6 1 0
BITMAP
44
92
92
92
92
6C
ENDCHAR
STARTCHAR xi
ENCODING 120
SWIDTH 493 0
DWIDTH 6 0
BBX 5 14 1 -3
BITMAP
40
80
70
C0
80
F0
40
80
80
C0
70
08
48
70
ENDCHAR
STARTCHAR psi
ENCODING 121
SWIDTH 686 0
DWIDTH 9 0
BBX 9 9 0 -3
BITMAP
8880
4900
4900
4900
6B00
3E00
0800
0800
0800
ENDCHAR
STARTCHAR zeta
ENCODING 122
SWIDTH 494 0
DWIDTH 6 0
BBX 5 13 1 -3
BITMAP
40
98
70
40
80
80
80
80
C0
70
08
48
70
ENDCHAR
STARTCHAR braceleft
ENCODING 123
SWIDTH 480 0
DWIDTH 6 0
BBX 5 12 0 -3
BITMAP
18
20
20
20
40
80
40
20
20
20
20
18
ENDCHAR
STARTCHAR bar
ENCODING 124
SWIDTH 200 0
DWIDTH 3 0
BBX 1 12 1 -3
BITMAP
80
80
80
80
80
80
80
80
80
80
80
80
ENDCHAR
STARTCHAR braceright
ENCODING 125
SWIDTH 480 0
DWIDTH 6 0
BBX 5 12 0 -3
BITMAP
C0
20
20
20
10
08
10
20
20
20
20
C0
ENDCHAR
STARTCHAR similar
ENCODING 126
SWIDTH 549 0
DWIDTH 7 0
BBX 7 3 0 2
BITMAP
62
92
8C
ENDCHAR
STARTCHAR Upsilon1
ENCODING 161
SWIDTH 620 0
DWIDTH 8 0
BBX 8 9 0 0
BITMAP
C6
49
2B
10
10
10
10
10
38
ENDCHAR
STARTCHAR minute
ENCODING 162
SWIDTH 247 0
DWIDTH 3 0
BBX 3 3 1 6
BITMAP
20
40
80
ENDCHAR
STARTCHAR lessequal
ENCODING 163
SWIDTH 549 0
DWIDTH 7 0
BBX 6 7 0 0
BITMAP
0C
30
C0
30
0C
00
FC
ENDCHAR
STARTCHAR fraction
ENCODING 164
SWIDTH 167 0
DWIDTH 4 0
BBX 5 9 -1 0
BITMAP
08
10
10
20
20
40
40
80
80
ENDCHAR
STARTCHAR infinity
ENCODING 165
SWIDTH 713 0
DWIDTH 9 0
BBX 9 4 0 1
BITMAP
7700
9880
8C80
7700
ENDCHAR
STARTCHAR florin
ENCODING 166
SWIDTH 500 0
DWIDTH 6 0
BBX 6 12 0 -3
BITMAP
0C
14
10
7C
10
10
10
20
20
20
A0
C0
ENDCHAR
STARTCHAR club
ENCODING 167
SWIDTH 753 0
DWIDTH 9 0
BBX 7 7 1 -1
BITMAP
38
38
D6
FE
D6
10
10
ENDCHAR
STARTCHAR diamond
ENCODING 168
SWIDTH 753 0
DWIDTH 7 0
BBX 5 6 1 0
BITMAP
20
70
F8
F8
70
20
ENDCHAR
STARTCHAR heart
ENCODING 169
SWIDTH 753 0
DWIDTH 9 0
BBX 7 6 1 0
BITMAP
6C
FE
FE
7C
38
10
ENDCHAR
STARTCHAR spade
ENCODING 170
SWIDTH 753 0
DWIDTH 9 0
BBX 7 7 1 -1
BITMAP
10
38
7C
FE
D6
10
10
ENDCHAR
STARTCHAR arrowboth
ENCODING 171
SWIDTH 1042 0
DWIDTH 13 0
BBX 11 5 1 1
BITMAP
2080
4040
FFE0
4040
2080
ENDCHAR
STARTCHAR arrowleft
ENCODING 172
SWIDTH 987 0
DWIDTH 12 0
BBX 12 5 0 1
BITMAP
2000
4000
FFF0
4000
2000
ENDCHAR
STARTCHAR arrowup
ENCODING 173
SWIDTH 603 0
DWIDTH 7 0
BBX 5 16 1 -4
BITMAP
20
70
A8
20
20
20
20
20
20
20
20
20
20
20
20
20
ENDCHAR
STARTCHAR arrowright
ENCODING 174
SWIDTH 987 0
DWIDTH 12 0
BBX 12 5 0 1
BITMAP
0040
0020
FFF0
0020
0040
ENDCHAR
STARTCHAR arrowdown
ENCODING 175
SWIDTH 603 0
DWIDTH 7 0
BBX 5 15 1 -3
BITMAP
20
20
20
20
20
20
20
20
20
20
20
20
A8
70
20
ENDCHAR
STARTCHAR degree
ENCODING 176
SWIDTH 400 0
DWIDTH 5 0
BBX 4 4 0 5
BITMAP
60
90
90
60
ENDCHAR
STARTCHAR plusminus
ENCODING 177
SWIDTH 549 0
DWIDTH 7 0
BBX 5 7 1 0
BITMAP
20
20
F8
20
20
00
F8
ENDCHAR
STARTCHAR second
ENCODING 178
SWIDTH 411 0
DWIDTH 5 0
BBX 5 3 0 6
BITMAP
28
50
A0
ENDCHAR
STARTCHAR greaterequal
ENCODING 179
SWIDTH 549 0
DWIDTH 7 0
BBX 6 7 0 0
BITMAP
C0
30
0C
30
C0
00
FC
ENDCHAR
STARTCHAR multiply
ENCODING 180
SWIDTH 549 0
DWIDTH 7 0
BBX 5 5 1 1
BITMAP
88
50
20
50
88
ENDCHAR
STARTCHAR proportional
ENCODING 181
SWIDTH 713 0
DWIDTH 9 0
BBX 8 4 0 1
BITMAP
77
88
88
77
ENDCHAR
STARTCHAR partialdiff
ENCODING 182
SWIDTH 494 0
DWIDTH 6 0
BBX 5 10 0 0
BITMAP
60
90
08
08
68
98
88
88
88
70
ENDCHAR
STARTCHAR bullet
ENCODING 183
SWIDTH 460 0
DWIDTH 6 0
BBX 4 4 1 1
BITMAP
60
F0
F0
60
ENDCHAR
STARTCHAR divide
ENCODING 184
SWIDTH 549 0
DWIDTH 7 0
BBX 5 5 1 1
BITMAP
20
00
F8
00
20
ENDCHAR
STARTCHAR notequal
ENCODING 185
SWIDTH 549 0
DWIDTH 7 0
BBX 5 7 1 0
BITMAP
08
10
F8
20
F8
40
80
ENDCHAR
STARTCHAR equivalence
ENCODING 186
SWIDTH 549 0
DWIDTH 7 0
BBX 5 5 1 1
BITMAP
F8
00
F8
00
F8
ENDCHAR
STARTCHAR approxequal
ENCODING 187
SWIDTH 549 0
DWIDTH 7 0
BBX 6 5 0 1
BITMAP
64
98
00
64
98
ENDCHAR
STARTCHAR ellipsis
ENCODING 188
SWIDTH 1000 0
DWIDTH 11 0
BBX 9 1 1 0
BITMAP
8880
ENDCHAR
STARTCHAR arrowvertex
ENCODING 189
SWIDTH 603 0
DWIDTH 7 0
BBX 1 16 3 -4
BITMAP
80
80
80
80
80
80
80
80
80
80
80
80
80
80
80
80
ENDCHAR
STARTCHAR arrowhorizex
ENCODING 190
SWIDTH 1000 0
DWIDTH 13 0
BBX 13 1 0 3
BITMAP
FFF8
ENDCHAR
STARTCHAR carriagereturn
ENCODING 191
SWIDTH 658 0
DWIDTH 8 0
BBX 7 8 0 0
BITMAP
02
02
02
02
02
42
FE
40
ENDCHAR
STARTCHAR aleph
ENCODING 192
SWIDTH 823 0
DWIDTH 10 0
BBX 7 9 1 0
BITMAP
88
CE
66
34
D4
9C
4C
66
E2
ENDCHAR
STARTCHAR Ifraktur
ENCODING 193
SWIDTH 686 0
DWIDTH 9 0
BBX 8 11 0 -1
BITMAP
3F
61
42
64
0C
06
03
01
61
B2
1C
ENDCHAR
STARTCHAR Rfraktur
ENCODING 194
SWIDTH 795 0
DWIDTH 10 0
BBX 9 10 0 0
BITMAP
6600
9900
9300
D600
5C00
1400
1200
1200
5200
B180
ENDCHAR
STARTCHAR weierstrass
ENCODING 195
SWIDTH 987 0
DWIDTH 10 0
BBX 8 11 1 -3
BITMAP
10
26
4B
91
A1
AB
CA
64
B0
90
60
ENDCHAR
STARTCHAR circlemultiply
ENCODING 196
SWIDTH 768 0
DWIDTH 10 0
BBX 9 9 0 0
BITMAP
1C00
6300
6300
9480
8880
9480
6300
6300
1C00
ENDCHAR
STARTCHAR circleplus
ENCODING 197
SWIDTH 768 0
DWIDTH 10 0
BBX 9 9 0 0
BITMAP
1C00
6300
4900
8880
BE80
8880
4900
6300
1C00
ENDCHAR
STARTCHAR emptyset
ENCODING 198
SWIDTH 823 0
DWIDTH 10 0
BBX 9 9 0 0
BITMAP
1C80
6300
4300
8480
8880
9080
6100
6300
9C00
ENDCHAR
STARTCHAR intersection
ENCODING 199
SWIDTH 768 0
DWIDTH 10 0
BBX 8 6 1 0
BITMAP
3C
42
81
81
81
81
ENDCHAR
STARTCHAR union
ENCODING 200
SWIDTH 768 0
DWIDTH 10 0
BBX 8 6 1 0
BITMAP
81
81
81
81
42
3C
ENDCHAR
STARTCHAR propersuperset
ENCODING 201
SWIDTH 713 0
DWIDTH 9 0
BBX 8 6 1 0
BITMAP
FC
02
01
01
02
FC
ENDCHAR
STARTCHAR reflexsuperset
ENCODING 202
SWIDTH 713 0
DWIDTH 9 0
BBX 8 8 1 -2
BITMAP
FC
02
01
01
02
FC
00
FF
ENDCHAR
STARTCHAR notsubset
ENCODING 203
SWIDTH 713 0
DWIDTH 9 0
BBX 8 8 0 -1
BITMAP
02
3F
44
88
88
50
3F
20
ENDCHAR
STARTCHAR propersubset
ENCODING 204
SWIDTH 713 0
DWIDTH 9 0
BBX 8 6 0 0
BITMAP
3F
40
80
80
40
3F
ENDCHAR
STARTCHAR reflexsubset
ENCODING 205
SWIDTH 713 0
DWIDTH 9 0
BBX 8 8 0 -2
BITMAP
3F
40
80
80
40
3F
00
FF
ENDCHAR
STARTCHAR element
ENCODING 206
SWIDTH 713 0
DWIDTH 8 0
BBX 6 6 1 0
BITMAP
7C
80
FC
80
80
7C
ENDCHAR
STARTCHAR notelement
ENCODING 207
SWIDTH 713 0
DWIDTH 8 0
BBX 6 8 1 -1
BITMAP
04
7C
88
FC
90
A0
7C
40
ENDCHAR
STARTCHAR angle
ENCODING 208
SWIDTH 768 0
DWIDTH 10 0
BBX 9 9 0 0
BITMAP
0080
0100
0200
0400
0800
1000
2000
4000
FF80
ENDCHAR
STARTCHAR gradient
ENCODING 209
SWIDTH 713 0
DWIDTH 9 0
BBX 8 9 0 0
BITMAP
FF
81
42
42
24
24
24
18
18
ENDCHAR
STARTCHAR registerserif
ENCODING 210
SWIDTH 790 0
DWIDTH 10 0
BBX 8 9 1 0
BITMAP
3C
42
F9
A5
B9
A9
ED
42
3C
ENDCHAR
STARTCHAR copyrightserif
ENCODING 211
SWIDTH 790 0
DWIDTH 10 0
BBX 8 9 1 0
BITMAP
3C
42
99
A9
A1
A5
99
42
3C
ENDCHAR
STARTCHAR trademarkserif
ENCODING 212
SWIDTH 890 0
DWIDTH 11 0
BBX 11 6 0 3
BITMAP
FA80
AA80
2540
2540
2540
7760
ENDCHAR
STARTCHAR product
ENCODING 213
SWIDTH 823 0
DWIDTH 10 0
BBX 9 11 0 -1
BITMAP
FF80
4100
4100
4100
4100
4100
4100
4100
4100
4100
E380
ENDCHAR
STARTCHAR radical
ENCODING 214
SWIDTH 549 0
DWIDTH 7 0
BBX 7 12 0 0
BITMAP
02
02
02
04
04
04
64
A8
28
28
10
10
ENDCHAR
STARTCHAR dotmath
ENCODING 215
SWIDTH 250 0
DWIDTH 3 0
BBX 2 1 1 3
BITMAP
C0
ENDCHAR
STARTCHAR logicalnot
ENCODING 216
SWIDTH 713 0
DWIDTH 9 0
BBX 7 4 1 0
BITMAP
FE
02
02
02
ENDCHAR
STARTCHAR logicaland
ENCODING 217
SWIDTH 603 0
DWIDTH 8 0
BBX 6 6 1 0
BITMAP
30
30
48
48
84
84
ENDCHAR
STARTCHAR logicalor
ENCODING 218
SWIDTH 603 0
DWIDTH 8 0
BBX 6 6 1 0
BITMAP
84
84
48
48
30
30
ENDCHAR
STARTCHAR arrowdblboth
ENCODING 219
SWIDTH 1042 0
DWIDTH 13 0
BBX 11 5 1 1
BITMAP
2080
7FC0
C060
7FC0
2080
ENDCHAR
STARTCHAR arrowdblleft
ENCODING 220
SWIDTH 987 0
DWIDTH 12 0
BBX 11 5 0 1
BITMAP
2000
7FE0
C000
7FE0
2000
ENDCHAR
STARTCHAR arrowdblup
ENCODING 221
SWIDTH 603 0
DWIDTH 8 0
BBX 5 12 1 -1
BITMAP
20
70
D8
50
50
50
50
50
50
50
50
50
ENDCHAR
STARTCHAR arrowdblright
ENCODING 222
SWIDTH 987 0
DWIDTH 12 0
BBX 11 5 1 1
BITMAP
0080
FFC0
0060
FFC0
0080
ENDCHAR
STARTCHAR arrowdbldown
ENCODING 223
SWIDTH 603 0
DWIDTH 8 0
BBX 5 12 1 0
BITMAP
50
50
50
50
50
50
50
50
50
D8
70
20
ENDCHAR
STARTCHAR lozenge
ENCODING 224
SWIDTH 494 0
DWIDTH 6 0
BBX 6 9 0 0
BITMAP
30
30
48
84
84
48
48
30
30
ENDCHAR
STARTCHAR angleleft
ENCODING 225
SWIDTH 329 0
DWIDTH 4 0
BBX 4 11 0 -1
BITMAP
10
20
20
40
40
80
40
40
20
20
10
ENDCHAR
STARTCHAR registersans
ENCODING 226
SWIDTH 790 0
DWIDTH 10 0
BBX 8 9 1 0
BITMAP
3C
42
B9
A5
B9
A5
A5
42
3C
ENDCHAR
STARTCHAR copyrightsans
ENCODING 227
SWIDTH 790 0
DWIDTH 10 0
BBX 8 9 1 0
BITMAP
3C
42
99
A5
A1
A5
99
42
3C
ENDCHAR
STARTCHAR trademarksans
ENCODING 228
SWIDTH 786 0
DWIDTH 10 0
BBX 10 6 0 3
BITMAP
FA80
2280
2540
2540
2540
2540
ENDCHAR
STARTCHAR summation
ENCODING 229
SWIDTH 713 0
DWIDTH 9 0
BBX 8 11 0 -1
BITMAP
FE
82
40
20
10
08
10
20
40
81
FF
ENDCHAR
STARTCHAR parenlefttp
ENCODING 230
SWIDTH 384 0
DWIDTH 5 0
BBX 4 16 1 -4
BITMAP
10
20
20
40
40
40
80
80
80
80
80
80
80
80
80
80
ENDCHAR
STARTCHAR parenleftex
ENCODING 231
SWIDTH 384 0
DWIDTH 5 0
BBX 1 16 1 -4
BITMAP
80
80
80
80
80
80
80
80
80
80
80
80
80
80
80
80
ENDCHAR
STARTCHAR parenleftbt
ENCODING 232
SWIDTH 384 0
DWIDTH 5 0
BBX 4 16 1 -4
BITMAP
80
80
80
80
80
80
80
80
80
80
40
40
40
20
20
10
ENDCHAR
STARTCHAR bracketlefttp
ENCODING 233
SWIDTH 384 0
DWIDTH 5 0
BBX 3 16 1 -4
BITMAP
E0
80
80
80
80
80
80
80
80
80
80
80
80
80
80
80
ENDCHAR
STARTCHAR bracketleftex
ENCODING 234
SWIDTH 384 0
DWIDTH 5 0
BBX 1 16 1 -4
BITMAP
80
80
80
80
80
80
80
80
80
80
80
80
80
80
80
80
ENDCHAR
STARTCHAR bracketleftbt
ENCODING 235
SWIDTH 384 0
DWIDTH 5 0
BBX 3 15 1 -3
BITMAP
80
80
80
80
80
80
80
80
80
80
80
80
80
80
E0
ENDCHAR
STARTCHAR bracelefttp
ENCODING 236
SWIDTH 494 0
DWIDTH 6 0
BBX 3 16 2 -4
BITMAP
60
80
80
80
80
80
80
80
80
80
80
80
80
80
80
80
ENDCHAR
STARTCHAR braceleftmid
ENCODING 237
SWIDTH 494 0
DWIDTH 6 0
BBX 3 16 0 -4
BITMAP
20
20
20
20
20
20
40
80
40
20
20
20
20
20
20
20
ENDCHAR
STARTCHAR braceleftbt
ENCODING 238
SWIDTH 494 0
DWIDTH 6 0
BBX 3 15 2 -3
BITMAP
80
80
80
80
80
80
80
80
80
80
80
80
80
80
60
ENDCHAR
STARTCHAR braceex
ENCODING 239
SWIDTH 494 0
DWIDTH 6 0
BBX 1 16 2 -4
BITMAP
80
80
80
80
80
80
80
80
80
80
80
80
80
80
80
80
ENDCHAR
STARTCHAR angleright
ENCODING 241
SWIDTH 329 0
DWIDTH 4 0
BBX 4 12 0 -2
BITMAP
80
40
40
20
20
10
10
20
20
40
40
80
ENDCHAR
STARTCHAR integral
ENCODING 242
SWIDTH 274 0
DWIDTH 4 0
BBX 5 15 0 -3
BITMAP
18
28
20
20
20
20
20
20
20
20
20
20
20
A0
C0
ENDCHAR
STARTCHAR integraltp
ENCODING 243
SWIDTH 686 0
DWIDTH 9 0
BBX 5 16 4 -4
BITMAP
38
58
80
80
80
80
80
80
80
80
80
80
80
80
80
80
ENDCHAR
STARTCHAR integralex
ENCODING 244
SWIDTH 686 0
DWIDTH 9 0
BBX 1 16 1 -4
BITMAP
80
80
80
80
80
80
80
80
80
80
80
80
80
80
80
80
ENDCHAR
STARTCHAR integralbt
ENCODING 245
SWIDTH 686 0
DWIDTH 9 0
BBX 5 15 0 -3
BITMAP
08
08
08
08
08
08
08
08
08
08
08
08
08
D0
E0
ENDCHAR
STARTCHAR parenrighttp
ENCODING 246
SWIDTH 384 0
DWIDTH 5 0
BBX 4 16 0 -4
BITMAP
80
40
40
20
20
20
10
10
10
10
10
10
10
10
10
10
ENDCHAR
STARTCHAR parenrightex
ENCODING 247
SWIDTH 384 0
DWIDTH 5 0
BBX 1 16 3 -4
BITMAP
80
80
80
80
80
80
80
80
80
80
80
80
80
80
80
80
ENDCHAR
STARTCHAR parenrightbt
ENCODING 248
SWIDTH 384 0
DWIDTH 5 0
BBX 4 16 0 -4
BITMAP
10
10
10
10
10
10
10
10
10
10
20
20
20
40
40
80
ENDCHAR
STARTCHAR bracketrighttp
ENCODING 249
SWIDTH 384 0
DWIDTH 5 0
BBX 3 16 1 -4
BITMAP
E0
20
20
20
20
20
20
20
20
20
20
20
20
20
20
20
ENDCHAR
STARTCHAR bracketrightex
ENCODING 250
SWIDTH 384 0
DWIDTH 5 0
BBX 1 16 3 -4
BITMAP
80
80
80
80
80
80
80
80
80
80
80
80
80
80
80
80
ENDCHAR
STARTCHAR bracketrightbt
ENCODING 251
SWIDTH 384 0
DWIDTH 5 0
BBX 3 15 1 -3
BITMAP
20
20
20
20
20
20
20
20
20
20
20
20
20
20
E0
ENDCHAR
STARTCHAR bracerighttp
ENCODING 252
SWIDTH 494 0
DWIDTH 6 0
BBX 3 16 0 -4
BITMAP
C0
20
20
20
20
20
20
20
20
20
20
20
20
20
20
20
ENDCHAR
STARTCHAR bracerightmid
ENCODING 253
SWIDTH 494 0
DWIDTH 6 0
BBX 3 16 2 -4
BITMAP
80
80
80
80
80
80
40
20
40
80
80
80
80
80
80
80
ENDCHAR
STARTCHAR bracerightbt
ENCODING 254
SWIDTH 494 0
DWIDTH 6 0
BBX 3 15 0 -3
BITMAP
20
20
20
20
20
20
20
20
20
20
20
20
20
20
C0
ENDCHAR
STARTCHAR apple
ENCODING -1
SWIDTH 790 0
DWIDTH 10 0
BBX 8 11 1 0
BITMAP
06
0E
0C
6B
FF
FC
FC
FF
FF
7F
36
ENDCHAR
ENDFONT
